<?xml version="1.0" encoding="UTF-8" standalone="yes"?>
<svg version="1.2" width="1024" height="1024" baseProfile="tiny-ps" xmlns="http://www.w3.org/2000/svg">
  <title>bimi-svg-tiny-12-ps</title>
  <path d="M0 0 C337.92 0 675.84 0 1024 0 C1024 337.92 1024 675.84 1024 1024 C686.08 1024 348.16 1024 0 1024 C0 686.08 0 348.16 0 0 Z " fill="#FB2C77" transform="translate(0,0)"/>
  <path d="M0 0 C0.99 0.71800781 1.98 1.43601563 3 2.17578125 C9.84813901 7.23327167 16.47534607 12.53339806 23 18 C23.51755859 18.43119141 24.03511719 18.86238281 24.56835938 19.30664062 C37.01418422 29.70046568 48.91119126 40.72799105 60.24267578 52.32714844 C62.09879213 54.19002291 62.09879213 54.19002291 65 56 C69.11244188 55.71060594 72.84536137 53.94309639 76.63574219 52.42260742 C93.97903556 45.47265674 112.11460806 39.91034513 130.66235352 37.33203125 C132.44782838 37.07842855 134.22896443 36.79409184 136.00756836 36.49609375 C147.76433651 34.67346515 159.43773592 34.60326378 171.3125 34.625 C172.37659088 34.62521149 173.44068176 34.62542297 174.53701782 34.62564087 C190.73072753 34.65777034 206.14303984 35.48786068 222 39 C223.77842076 39.35529514 225.55706544 39.70947137 227.3359375 40.0625 C242.58135208 43.25188769 257.86113898 48.23174838 271.9765625 54.8359375 C275.20803366 56.08009565 275.89295235 56.16731365 279 55 C280.6677569 53.7262605 280.6677569 53.7262605 282.171875 52.0859375 C282.74953613 51.49337158 283.32719727 50.90080566 283.92236328 50.2902832 C284.5254834 49.65823975 285.12860352 49.02619629 285.75 48.375 C287.01121072 47.08286614 288.27421476 45.79248011 289.5390625 44.50390625 C290.14137695 43.88918457 290.74369141 43.27446289 291.36425781 42.64111328 C293.78565955 40.21176067 296.34080511 37.97630676 298.95703125 35.76171875 C301.10537047 33.9091356 303.18640018 31.99132906 305.26489258 30.06103516 C311.31307423 24.44888742 317.53263256 19.12898167 324 14 C325.423125 12.84951172 325.423125 12.84951172 326.875 11.67578125 C341.10843642 0.40159245 356.38811129 -9.60693807 373 -17 C373.62712891 -17.27924316 374.25425781 -17.55848633 374.90039062 -17.84619141 C396.89296623 -27.46652764 419.80677096 -31.84201013 443 -24 C455.87447107 -18.90750217 464.38728195 -8.84974063 471 3 C471.59683594 4.05960938 472.19367187 5.11921875 472.80859375 6.2109375 C488.03576855 34.8314768 488.36892744 68.55759205 484 100 C483.90879883 100.71510742 483.81759766 101.43021484 483.72363281 102.16699219 C479.81989664 132.58873967 471.69215913 164.32111219 458.1796875 191.96875 C456.84955618 195.38657089 456.45061626 197.37031084 457 201 C458.38714956 203.45971876 459.76363422 205.56491365 461.4375 207.8125 C462.45073446 209.22808299 463.46234202 210.64483134 464.47265625 212.0625 C465.31401123 213.23232422 465.31401123 213.23232422 466.17236328 214.42578125 C469.65533097 219.33152681 473.00342597 224.32987828 476.375 229.3125 C477.84714308 231.47951537 479.31979587 233.64618457 480.79296875 235.8125 C481.50630371 236.86179687 482.21963867 237.91109375 482.95458984 238.9921875 C485.86222066 243.26791102 488.77150613 247.54247464 491.6875 251.8125 C492.20771729 252.57457764 492.72793457 253.33665527 493.26391602 254.12182617 C495.92984863 258.01576874 498.62091537 261.88940658 501.3515625 265.73828125 C554.81438809 341.13535165 554.81438809 341.13535165 551 370 C547.98780678 385.12041727 537.94072808 396.64440783 527.52636719 407.37792969 C525.84062519 409.1693676 524.23730229 411.01833173 522.6328125 412.8828125 C518.32541854 417.84452405 513.64888288 422.401862 508.9609375 427 C505.67227593 430.25056897 502.49500434 433.52779491 499.484375 437.0390625 C495.98437789 441.09993117 492.19051697 444.74594272 488.25 448.375 C487.55044189 449.0242041 486.85088379 449.6734082 486.13012695 450.34228516 C484.09048209 452.23227643 482.04555615 454.11641174 480 456 C478.96727203 456.95814378 477.93470067 457.91645643 476.90234375 458.875 C470.79378217 464.50015023 464.49129148 469.82262945 458 475 C456.97648438 475.81855469 455.95296875 476.63710938 454.8984375 477.48046875 C425.72468003 500.67767295 395.16874351 521.55498855 362.54296875 539.59130859 C360.40711297 540.77447755 358.28024107 541.9715336 356.15625 543.17578125 C304.15843559 571.97732295 243.48622306 588.85299171 184 590 C183.15695312 590.02046387 182.31390625 590.04092773 181.4453125 590.06201172 C92.42548399 591.96912915 7.78435174 561.18383176 -65 511 C-65.71446289 510.50951172 -66.42892578 510.01902344 -67.16503906 509.51367188 C-84.11392508 497.85658178 -100.36394916 485.4851794 -116.25292969 472.42675781 C-117.78563066 471.17506629 -119.33308224 469.94148212 -120.8828125 468.7109375 C-126.22167526 464.45578419 -131.27016481 459.97171411 -136.24609375 455.30078125 C-136.93944321 454.65004135 -137.63279266 453.99930145 -138.34715271 453.32884216 C-145.81614275 446.28204854 -153.09883117 439.05247287 -160.34887695 431.78149414 C-162.58885186 429.5360842 -164.83422696 427.29617161 -167.08007812 425.05664062 C-168.53417542 423.60188354 -169.98796303 422.14681682 -171.44140625 420.69140625 C-172.09879288 420.03604385 -172.7561795 419.38068146 -173.43348694 418.70545959 C-177.26351404 414.85622451 -180.91462221 410.8985999 -184.46020508 406.78553772 C-185.89016276 405.12736666 -187.34430031 403.49500568 -188.80859375 401.8671875 C-198.6378802 390.67961926 -207.65557797 378.55173082 -207.234375 362.98828125 C-204.66509938 330.23001707 -178.35303652 297.97342516 -160.359375 271.890625 C-155.08197928 264.23068571 -149.93780921 256.48197477 -144.80055237 248.72761536 C-142.42866276 245.14855261 -140.0496879 241.57432031 -137.66552734 238.00341797 C-134.5787776 233.379824 -131.50066548 228.75056808 -128.42706299 224.1182251 C-127.18777009 222.2533832 -125.94571871 220.39037142 -124.7008667 218.52923584 C-122.94013504 215.89553094 -121.1897097 213.25524701 -119.44140625 210.61328125 C-118.63941048 209.42097145 -118.63941048 209.42097145 -117.82121277 208.20457458 C-114.26931293 203.02293799 -114.26931293 203.02293799 -113 197 C-113.65216024 194.30704232 -113.65216024 194.30704232 -114.84375 191.5625 C-115.26237305 190.51368652 -115.68099609 189.46487305 -116.11230469 188.38427734 C-116.57024414 187.26746582 -117.02818359 186.1506543 -117.5 185 C-118.43562219 182.63933813 -119.36787827 180.27733955 -120.296875 177.9140625 C-120.75900391 176.74133789 -121.22113281 175.56861328 -121.69726562 174.36035156 C-139.42246784 128.63889666 -154.44095228 64.00937493 -134 17 C-129.28078492 6.62970454 -123.86236915 -2.68348678 -116 -11 C-115.38898438 -11.65226562 -114.77796875 -12.30453125 -114.1484375 -12.9765625 C-81.90010344 -44.12708094 -30.44846638 -22.17250241 0 0 Z " fill="#FEFEFE" transform="translate(340,220)"/>
  <path d="M0 0 C1.04800781 0.268125 2.09601563 0.53625 3.17578125 0.8125 C23.19170234 6.45741312 38.03909671 18.32899338 52.125 33.0625 C66.41463433 47.99432033 66.41463433 47.99432033 84.0625 58.5 C85.12597656 58.9640625 86.18945312 59.428125 87.28515625 59.90625 C96.53697796 63.63360263 103.92280344 61.66120816 113 58 C123.44668863 52.18959393 132.04834509 43.08454484 140.32910156 34.60449219 C160.18751908 14.27753159 182.72047967 -1.85870604 212.24731445 -2.24169922 C223.19794122 -2.27076185 233.37086984 -1.87119151 244 1 C245.08643799 1.29003906 245.08643799 1.29003906 246.19482422 1.5859375 C272.20345942 8.73789829 296.62664881 21.62919229 318 38 C318.8669751 38.65500488 318.8669751 38.65500488 319.75146484 39.32324219 C332.72151923 49.14357773 344.30454848 60.22184465 355.8125 71.6875 C356.31272675 72.18495728 356.81295349 72.68241455 357.32833862 73.19494629 C363.10629442 78.94955465 368.7176522 84.78402001 374 91 C374.94904734 92.08332388 375.89951545 93.16540513 376.8515625 94.24609375 C384.08377975 102.53819379 390.85695712 111.1224491 397.44921875 119.93017578 C398.90624988 121.87487193 400.37418817 123.81086195 401.84375 125.74609375 C429.5026825 162.47352871 429.5026825 162.47352871 428.44140625 175.05078125 C427.6662046 178.47401687 426.30927458 180.3527828 424 183 C423.4946875 183.59167969 422.989375 184.18335938 422.46875 184.79296875 C399.20453625 208.6769259 348.00264279 218.53745326 315.875 219.203125 C301.71666696 219.34454722 287.82052927 219.48284728 274 216 C273.16855469 215.79068848 272.33710937 215.58137695 271.48046875 215.36572266 C240.85932676 207.44704154 215.15255645 194.73581387 192 173 C190.5892569 171.76403923 189.17308465 170.53423042 187.75 169.3125 C185.33514332 167.22672199 183.11405952 165.08084728 180.9375 162.75 C158.97685835 140.59016886 128.63689456 130.8829637 98.07791138 130.63113403 C86.47779015 130.59789018 75.21923995 130.77593105 64 134 C62.77410156 134.3403125 61.54820312 134.680625 60.28515625 135.03125 C38.65177698 141.63958877 21.82717855 153.93740627 6.0625 170 C-14.3568007 190.57832952 -41.25755618 205.90508218 -69.125 213.8125 C-69.76759766 213.99530518 -70.41019531 214.17811035 -71.07226562 214.36645508 C-84.62234769 217.94769011 -97.95868823 219.56075169 -111.9375 219.4375 C-112.69013123 219.43412628 -113.44276245 219.43075256 -114.21820068 219.42727661 C-149.86878334 219.19799583 -202.23016326 210.49732469 -229.0625 184.625 C-232.83668965 180.45119027 -234.72377849 176.55694412 -234.5546875 170.7890625 C-228.81365741 141.92219291 -196.26797982 109.90558389 -177 89 C-176.25621094 88.1646875 -175.51242188 87.329375 -174.74609375 86.46875 C-168.48473632 79.49208883 -161.9313389 72.82529253 -155.3125 66.1875 C-153.97590332 64.84401489 -153.97590332 64.84401489 -152.61230469 63.47338867 C-147.56960312 58.4424165 -142.43469992 53.6045162 -137 49 C-135.71802734 47.89591797 -135.71802734 47.89591797 -134.41015625 46.76953125 C-109.45074381 25.96309925 -81.1739207 10.22184605 -50 1 C-48.8140625 0.63777344 -47.628125 0.27554687 -46.40625 -0.09765625 C-32.12865755 -3.82299894 -14.28946065 -3.71483763 0 0 Z " fill="#FB2B76" transform="translate(415,408)"/>
  <path d="M0 0 C8.1435678 7.17409544 11.25423853 16.75301798 12.625 27.3125 C12.961349 33.14760076 13.01590951 38.96885014 13 44.8125 C12.99818726 46.04169159 12.99818726 46.04169159 12.99633789 47.29571533 C12.90273192 70.7811099 10.42199688 123.51550312 -7.375 141.3125 C-9.671875 141.33984375 -9.671875 141.33984375 -12.375 140.3125 C-14.3161132 138.19786305 -15.95678544 136.18582833 -17.625 133.875 C-18.59363768 132.58909507 -19.56501915 131.30525262 -20.5390625 130.0234375 C-21.01762695 129.39018555 -21.49619141 128.75693359 -21.98925781 128.10449219 C-41.13854538 103.34131905 -68.15203713 83.81145942 -94.9519043 68.14453125 C-96.16487183 67.43490234 -96.16487183 67.43490234 -97.40234375 66.7109375 C-98.12156006 66.29505371 -98.84077637 65.87916992 -99.58178711 65.45068359 C-101.375 64.3125 -101.375 64.3125 -103.375 62.3125 C-103.31699148 58.57509368 -100.9660612 56.56639415 -98.42822266 54.05078125 C-97.89503418 53.53902344 -97.3618457 53.02726562 -96.8125 52.5 C-96.26384277 51.96375 -95.71518555 51.4275 -95.14990234 50.875 C-91.01860951 46.86389465 -86.76722521 43.03550701 -82.375 39.3125 C-81.34916533 38.41270528 -80.32453302 37.51153885 -79.30078125 36.609375 C-23.91331863 -11.95665931 -23.91331863 -11.95665931 0 0 Z " fill="#FC2B76" transform="translate(766.375,241.6875)"/>
  <path d="M0 0 C22.79009037 8.24335118 41.16694153 25.12682553 58.5390625 41.421875 C60.82381759 43.55947401 63.14966968 45.63900704 65.5078125 47.6953125 C66.11165771 48.22962891 66.71550293 48.76394531 67.33764648 49.31445312 C68.49674342 50.33854206 69.66517377 51.3521933 70.84399414 52.35351562 C74.70889917 55.80177586 74.70889917 55.80177586 75.17358398 58.94262695 C74.8046875 61.44921875 74.8046875 61.44921875 73.34277344 62.97558594 C72.66504883 63.39485352 71.98732422 63.81412109 71.2890625 64.24609375 C70.53826416 64.72522217 69.78746582 65.20435059 69.01391602 65.69799805 C68.20237061 66.19340088 67.3908252 66.68880371 66.5546875 67.19921875 C64.89026226 68.26041416 63.22750338 69.32422761 61.56640625 70.390625 C60.74962402 70.91027832 59.9328418 71.42993164 59.09130859 71.96533203 C50.16543972 77.75771203 41.95889836 84.63542612 33.8046875 91.44921875 C33.28229492 91.88524414 32.75990234 92.32126953 32.22167969 92.77050781 C25.72730442 98.19985184 19.32361343 103.70713006 13.06640625 109.41015625 C11.01349552 111.26096696 8.91841129 113.04379672 6.8046875 114.82421875 C-1.50247665 122.07623906 -8.45148741 130.76513114 -15.1953125 139.44921875 C-16.8453125 139.11921875 -18.4953125 138.78921875 -20.1953125 138.44921875 C-26.07346927 120.96985009 -31.51593783 103.54560981 -35.1953125 85.44921875 C-35.37320313 84.58329102 -35.55109375 83.71736328 -35.734375 82.82519531 C-38.22282028 70.06203848 -38.49668005 57.28416664 -38.5703125 44.32421875 C-38.578349 43.52721558 -38.5863855 42.7302124 -38.59466553 41.90905762 C-38.69755209 28.47422094 -38.17676426 12.91335009 -28.38671875 2.53125 C-19.75611685 -5.02276955 -10.50751423 -3.27641308 0 0 Z " fill="#FC2B75" transform="translate(283.1953125,243.55078125)"/>
  <path d="M0 0 C1.97692999 -0.00962127 3.95371726 -0.04078007 5.93041992 -0.07226562 C21.70731826 -0.13559487 35.7983576 2.96801806 47.4597168 14.09179688 C52.68281352 19.74672443 54.74092737 24.41117622 55.0690918 32.17773438 C54.73542841 40.54637291 52.02807838 46.6290376 46.5065918 52.86523438 C33.84561122 64.48257664 16.58371432 69.67855632 -0.3215332 69.44726562 C-14.53883924 68.53722067 -29.36857401 62.36481292 -39.5559082 52.24023438 C-46.4237347 43.63690961 -48.62415414 36.25652056 -47.5559082 25.24023438 C-46.67248756 22.18339816 -45.38837491 19.82859359 -43.5559082 17.24023438 C-43.1434082 16.63695312 -42.7309082 16.03367187 -42.3059082 15.41210938 C-32.09610562 2.06975373 -15.59875139 0.04571621 0 0 Z " fill="#51191C" transform="translate(508.555908203125,576.759765625)"/>
  <path d="M0 0 C3.03906748 1.95281445 5.45567223 4.45099515 8 7 C30.99810205 28.52289485 58.19161844 41.35512601 90.06640625 40.31640625 C96.92487763 39.94962198 103.36415623 38.83249242 110 37 C110.70189453 36.80664062 111.40378906 36.61328125 112.12695312 36.4140625 C132.90935299 30.52298852 148.16695722 19.60128369 163.76245117 4.8972168 C167.92936678 0.97801864 170.02825022 -0.40211657 175.89453125 -0.359375 C179.61593453 0.27581814 181.40312849 2.33979016 184 5 C185.94382669 8.88765338 185.90124759 12.80006841 185 17 C182.47440897 20.83213234 179.30756197 23.8397795 176 27 C175.31550781 27.73992188 174.63101563 28.47984375 173.92578125 29.2421875 C153.74323338 50.84712446 122.93935964 64.64924363 93.48266602 66.1262207 C57.37352364 67.15566951 24.92627974 56.03365169 -1.67578125 31.234375 C-2.82626953 30.12835937 -2.82626953 30.12835937 -4 29 C-4.83917969 28.20078125 -5.67835938 27.4015625 -6.54296875 26.578125 C-14.62625272 18.71330816 -14.62625272 18.71330816 -15.30078125 13.81640625 C-15.32541678 9.07817218 -15.20138684 5.77306306 -12 2 C-8.54827841 -0.68467235 -4.16977648 -0.97753002 0 0 Z " fill="#4F181B" transform="translate(427,658)"/>
  <path d="M0 0 C10.71050961 6.91720412 15.85384129 19.55980187 18.578125 31.54296875 C20.91607485 45.15936185 16.84067679 59.76049772 9 71 C3.82881981 77.21575858 -1.6981395 82.05660676 -10 83 C-18.98427175 83.79086899 -25.5614594 81.84015397 -32.75 76.375 C-36.8375834 72.59020056 -38.98657236 68.13313421 -41 63 C-41.32097656 62.1853125 -41.64195312 61.370625 -41.97265625 60.53125 C-46.48213978 46.26869745 -46.21790122 26.70633333 -40 13 C-31.65257464 -1.81848422 -15.73733422 -8.14969094 0 0 Z " fill="#51191C" transform="translate(641,472)"/>
  <path d="M0 0 C1.03125 0.61875 2.0625 1.2375 3.125 1.875 C3.77855469 2.24238281 4.43210937 2.60976563 5.10546875 2.98828125 C13.34529191 8.22899429 16.56418639 17.00486067 19 26.125 C21.99102037 40.88542006 20.76723755 57.23875531 14.125 70.875 C10.03649305 76.98175211 4.32365923 82.21991665 -2.7890625 84.484375 C-12.35787927 86.27628825 -19.48777499 84.25767617 -27.5625 79.1875 C-30.95694186 75.79305814 -33.40224287 71.97349248 -35.875 67.875 C-36.25914062 67.2459375 -36.64328125 66.616875 -37.0390625 65.96875 C-43.50305328 54.32369791 -44.55399184 40.60344426 -41.3125 27.875 C-37.84343596 16.88558735 -32.50951384 7.51362261 -22.875 0.875 C-16.39766262 -2.4176465 -6.79375812 -2.65774334 0 0 Z " fill="#51191C" transform="translate(406.875,470.125)"/>
  <path d="M0 0 C1.23105469 -0.00515625 2.46210937 -0.0103125 3.73046875 -0.015625 C6.8125 0.25 6.8125 0.25 8.8125 2.25 C7.95591797 2.18039062 7.95591797 2.18039062 7.08203125 2.109375 C-0.4982899 1.77193622 -10.13243887 2.71762867 -16.06640625 7.88671875 C-16.43636719 8.33660156 -16.80632813 8.78648437 -17.1875 9.25 C-17.8475 8.92 -18.5075 8.59 -19.1875 8.25 C-18.13262267 7.28328244 -17.06816719 6.32701255 -16 5.375 C-15.40832031 4.84132813 -14.81664062 4.30765625 -14.20703125 3.7578125 C-9.64356994 0.35066344 -5.61629304 -0.02367247 0 0 Z " fill="#39180F" transform="translate(626.1875,468.75)"/>
  <path d="M0 0 C-2.66892697 3.45390549 -5.84151743 4.12452998 -10 5 C-12.22265625 4.546875 -12.22265625 4.546875 -14 4 C-12.23494565 3.13395466 -10.46271926 2.28251358 -8.6875 1.4375 C-7.70136719 0.96183594 -6.71523438 0.48617187 -5.69921875 -0.00390625 C-3 -1 -3 -1 0 0 Z " fill="#FC246C" transform="translate(658,782)"/>
  <path d="M0 0 C0.33 0.66 0.66 1.32 1 2 C0.34 2 -0.32 2 -1 2 C-1 2.99 -1 3.98 -1 5 C-1.556875 5.0825 -2.11375 5.165 -2.6875 5.25 C-5.21587444 5.912526 -5.21587444 5.912526 -7.5625 8.125 C-8.366875 8.74375 -9.17125 9.3625 -10 10 C-10.99 9.67 -11.98 9.34 -13 9 C-11.20966193 7.68568828 -9.41768797 6.3736047 -7.625 5.0625 C-6.62726563 4.33160156 -5.62953125 3.60070312 -4.6015625 2.84765625 C-2 1 -2 1 0 0 Z " fill="#FC1861" transform="translate(308,435)"/>
  <path d="M0 0 C0.8353125 0.37125 0.8353125 0.37125 1.6875 0.75 C0.6975 1.41 -0.2925 2.07 -1.3125 2.75 C-2.2715625 3.4925 -2.2715625 3.4925 -3.25 4.25 C-5.20610503 5.67262184 -7.12347027 6.73366477 -9.3125 7.75 C-7.69865111 3.642021 -4.79776509 -0.51867731 0 0 Z " fill="#FB1860" transform="translate(262.3125,242.25)"/>
  <path d="M0 0 C0.66 0.33 1.32 0.66 2 1 C-0.69283741 5.03925611 -3.35550201 6.00475043 -8 7 C-5.42215154 4.35247996 -3.08351902 2.05567935 0 0 Z " fill="#FC1A64" transform="translate(775,712)"/>
  <path d="M0 0 C0.33 0.66 0.66 1.32 1 2 C0.071875 2.598125 -0.85625 3.19625 -1.8125 3.8125 C-4.20254718 5.45272845 -6.08470253 6.8718917 -8 9 C-8.66 8.34 -9.32 7.68 -10 7 C-6.7 4.69 -3.4 2.38 0 0 Z " fill="#FC1760" transform="translate(754,727)"/>
  <path d="M0 0 C6.625 -0.25 6.625 -0.25 10 2 C5.545 2.495 5.545 2.495 1 3 C0.67 2.01 0.34 1.02 0 0 Z " fill="#FC3C81" transform="translate(284,624)"/>
</svg>